
<!-- Generated by graphviz version 2.40.1 (20161225.0304)
 -->
<!-- Title: Argument Map Pages: 1 -->
<svg width="720pt" height="106pt"
 viewBox="0.00 0.00 720.00 105.94" xmlns="http://www.w3.org/2000/svg" xmlns:xlink="http://www.w3.org/1999/xlink">
<g id="graph0" class="graph" transform="scale(.6159 .6159) rotate(0) translate(4 168)">
<title>Argument Map</title>
<!-- n0 -->
<g id="node1" class="node">
<title>n0</title>
<path fill="#ffffff" stroke="#1b9e77" stroke-width="2" d="M184,-162C184,-162 12,-162 12,-162 6,-162 0,-156 0,-150 0,-150 0,-114 0,-114 0,-108 6,-102 12,-102 12,-102 184,-102 184,-102 190,-102 196,-108 196,-114 196,-114 196,-150 196,-150 196,-156 190,-162 184,-162"/>
<text text-anchor="start" x="15.196" y="-148" font-family="arial" font-weight="bold" font-size="10.00" fill="#000000"> Gabby used to work on the streets in</text>
<text text-anchor="start" x="78.269" y="-138" font-family="arial" font-weight="bold" font-size="10.00" fill="#000000"> Boston .</text>
<text text-anchor="start" x="16.5855" y="-123" font-family="arial" font-size="10.00" fill="#000000">Gabby used to work on the streets in</text>
<text text-anchor="start" x="79.6585" y="-111" font-family="arial" font-size="10.00" fill="#000000"> Boston.</text>
</g>
<!-- n1 -->
<g id="node2" class="node">
<title>n1</title>
<path fill="#ffffff" stroke="#1b9e77" stroke-width="2" d="M398,-162C398,-162 226,-162 226,-162 220,-162 214,-156 214,-150 214,-150 214,-114 214,-114 214,-108 220,-102 226,-102 226,-102 398,-102 398,-102 404,-102 410,-108 410,-114 410,-114 410,-150 410,-150 410,-156 404,-162 398,-162"/>
<text text-anchor="start" x="231.422" y="-148" font-family="arial" font-weight="bold" font-size="10.00" fill="#000000"> we all stayed up talking for a couple</text>
<text text-anchor="start" x="289.77" y="-138" font-family="arial" font-weight="bold" font-size="10.00" fill="#000000"> of hours .</text>
<text text-anchor="start" x="235.041" y="-123" font-family="arial" font-size="10.00" fill="#000000">After work, we all stayed up talking</text>
<text text-anchor="start" x="263.6505" y="-111" font-family="arial" font-size="10.00" fill="#000000"> for a couple of hours.</text>
</g>
<!-- n2 -->
<g id="node3" class="node">
<title>n2</title>
<path fill="#ffffff" stroke="#1b9e77" stroke-width="2" d="M612,-162C612,-162 440,-162 440,-162 434,-162 428,-156 428,-150 428,-150 428,-114 428,-114 428,-108 434,-102 440,-102 440,-102 612,-102 612,-102 618,-102 624,-108 624,-114 624,-114 624,-150 624,-150 624,-156 618,-162 612,-162"/>
<text text-anchor="start" x="445.981" y="-148" font-family="arial" font-weight="bold" font-size="10.00" fill="#000000"> I was working non &#45; stop and hardly</text>
<text text-anchor="start" x="491.2685" y="-138" font-family="arial" font-weight="bold" font-size="10.00" fill="#000000"> sleeping at all .</text>
<text text-anchor="start" x="449.876" y="-123" font-family="arial" font-size="10.00" fill="#000000">The rest of the time, I was working</text>
<text text-anchor="start" x="447.087" y="-111" font-family="arial" font-size="10.00" fill="#000000"> non&#45;stop and hardly sleeping at all.</text>
</g>
<!-- n3 -->
<g id="node4" class="node">
<title>n3</title>
<path fill="#ffffff" stroke="#1b9e77" stroke-width="2" d="M934,-164C934,-164 762,-164 762,-164 756,-164 750,-158 750,-152 750,-152 750,-112 750,-112 750,-106 756,-100 762,-100 762,-100 934,-100 934,-100 940,-100 946,-106 946,-112 946,-112 946,-152 946,-152 946,-158 940,-164 934,-164"/>
<text text-anchor="start" x="837.167" y="-150" font-family="arial" font-weight="bold" font-size="10.00" fill="#000000"> This</text>
<text text-anchor="start" x="770.209" y="-133" font-family="arial" font-size="10.00" fill="#000000">This women at work, Gabby, was a</text>
<text text-anchor="start" x="776.865" y="-121" font-family="arial" font-size="10.00" fill="#000000"> prostitute on the street and was</text>
<text text-anchor="start" x="805.4845" y="-109" font-family="arial" font-size="10.00" fill="#000000"> addicted to heroin.</text>
</g>
<!-- n4 -->
<g id="node5" class="node">
<title>n4</title>
<path fill="#ffffff" stroke="#1b9e77" stroke-width="2" d="M1149,-158C1149,-158 977,-158 977,-158 971,-158 965,-152 965,-146 965,-146 965,-118 965,-118 965,-112 971,-106 977,-106 977,-106 1149,-106 1149,-106 1155,-106 1161,-112 1161,-118 1161,-118 1161,-146 1161,-146 1161,-152 1155,-158 1149,-158"/>
<text text-anchor="start" x="979.367" y="-144" font-family="arial" font-weight="bold" font-size="10.00" fill="#000000"> time was at work , at the Lusty Lady .</text>
<text text-anchor="start" x="985.212" y="-127" font-family="arial" font-size="10.00" fill="#000000">Well, the other time was at work, at</text>
<text text-anchor="start" x="1027.7065" y="-115" font-family="arial" font-size="10.00" fill="#000000"> the Lusty Lady.</text>
</g>
<!-- n5 -->
<g id="node6" class="node">
<title>n5</title>
<path fill="#1b9e77" stroke="#000000" d="M184,-52C184,-52 12,-52 12,-52 6,-52 0,-46 0,-40 0,-40 0,-24 0,-24 0,-18 6,-12 12,-12 12,-12 184,-12 184,-12 190,-12 196,-18 196,-24 196,-24 196,-40 196,-40 196,-46 190,-52 184,-52"/>
<text text-anchor="start" x="59.6595" y="-38" font-family="arial" font-weight="bold" font-size="10.00" fill="#000000"> Tell me about it .</text>
<text text-anchor="start" x="62.4385" y="-21" font-family="arial" font-size="10.00" fill="#000000">Tell me about it.</text>
</g>
<!-- n5&#45;&gt;n0 -->
<g id="edge1" class="edge">
<title>n5&#45;&gt;n0</title>
<path fill="none" stroke="#00ff00" d="M98,-52.2365C98,-63.6061 98,-78.2039 98,-91.7965"/>
<polygon fill="#00ff00" stroke="#00ff00" points="94.5001,-91.9246 98,-101.9247 101.5001,-91.9247 94.5001,-91.9246"/>
</g>
<!-- n6 -->
<g id="node7" class="node">
<title>n6</title>
<path fill="#1b9e77" stroke="#000000" d="M505,-52C505,-52 333,-52 333,-52 327,-52 321,-46 321,-40 321,-40 321,-24 321,-24 321,-18 327,-12 333,-12 333,-12 505,-12 505,-12 511,-12 517,-18 517,-24 517,-24 517,-40 517,-40 517,-46 511,-52 505,-52"/>
<text text-anchor="start" x="411.2215" y="-38" font-family="arial" font-weight="bold" font-size="10.00" fill="#000000"> Do</text>
<text text-anchor="start" x="336.7595" y="-21" font-family="arial" font-size="10.00" fill="#000000">Do you want to work so many hours?</text>
</g>
<!-- n6&#45;&gt;n1 -->
<g id="edge2" class="edge">
<title>n6&#45;&gt;n1</title>
<path fill="none" stroke="#00ff00" d="M397.347,-52.2365C384.2273,-64.4978 367.0904,-80.5136 351.6177,-94.9741"/>
<polygon fill="#00ff00" stroke="#00ff00" points="349.0968,-92.5395 344.1806,-101.9247 353.8765,-97.6537 349.0968,-92.5395"/>
</g>
<!-- n6&#45;&gt;n2 -->
<g id="edge3" class="edge">
<title>n6&#45;&gt;n2</title>
<path fill="none" stroke="#00ff00" d="M440.653,-52.2365C453.7727,-64.4978 470.9096,-80.5136 486.3823,-94.9741"/>
<polygon fill="#00ff00" stroke="#00ff00" points="484.1235,-97.6537 493.8194,-101.9247 488.9032,-92.5395 484.1235,-97.6537"/>
</g>
<!-- n7 -->
<g id="node8" class="node">
<title>n7</title>
<path fill="#1b9e77" stroke="#000000" d="M719,-64C719,-64 547,-64 547,-64 541,-64 535,-58 535,-52 535,-52 535,-12 535,-12 535,-6 541,0 547,0 547,0 719,0 719,0 725,0 731,-6 731,-12 731,-12 731,-52 731,-52 731,-58 725,-64 719,-64"/>
<text text-anchor="start" x="590.4885" y="-50" font-family="arial" font-weight="bold" font-size="10.00" fill="#000000"> you admire people</text>
<text text-anchor="start" x="548.527" y="-33" font-family="arial" font-size="10.00" fill="#000000">Lisa, I can see that you admire people</text>
<text text-anchor="start" x="564.099" y="-21" font-family="arial" font-size="10.00" fill="#000000"> who have come from a difficult</text>
<text text-anchor="start" x="547.9705" y="-9" font-family="arial" font-size="10.00" fill="#000000"> background and bettered themselves.</text>
</g>
<!-- n7&#45;&gt;n3 -->
<g id="edge4" class="edge">
<title>n7&#45;&gt;n3</title>
<path fill="none" stroke="#00ff00" d="M701.9145,-64.0533C723.6129,-74.1455 747.7294,-85.3625 770.0122,-95.7266"/>
<polygon fill="#00ff00" stroke="#00ff00" points="768.5636,-98.9129 779.1069,-99.9567 771.5158,-92.5658 768.5636,-98.9129"/>
</g>
<!-- n8 -->
<g id="node9" class="node">
<title>n8</title>
<path fill="#1b9e77" stroke="#000000" d="M935,-64C935,-64 761,-64 761,-64 755,-64 749,-58 749,-52 749,-52 749,-12 749,-12 749,-6 755,0 761,0 761,0 935,0 935,0 941,0 947,-6 947,-12 947,-12 947,-52 947,-52 947,-58 941,-64 935,-64"/>
<text text-anchor="start" x="826.604" y="-50" font-family="arial" font-weight="bold" font-size="10.00" fill="#000000"> you think</text>
<text text-anchor="start" x="773.809" y="-33" font-family="arial" font-size="10.00" fill="#000000">But do you think that makes them</text>
<text text-anchor="start" x="758.8165" y="-21" font-family="arial" font-size="10.00" fill="#000000"> superior to someone who comes from a</text>
<text text-anchor="start" x="793.2595" y="-9" font-family="arial" font-size="10.00" fill="#000000"> supportive background?</text>
</g>
<!-- n8&#45;&gt;n3 -->
<g id="edge5" class="edge">
<title>n8&#45;&gt;n3</title>
<path fill="none" stroke="#00ff00" d="M848,-64.1911C848,-72.3094 848,-81.1483 848,-89.6814"/>
<polygon fill="#00ff00" stroke="#00ff00" points="844.5001,-89.8692 848,-99.8692 851.5001,-89.8693 844.5001,-89.8692"/>
</g>
<!-- n9 -->
<g id="node10" class="node">
<title>n9</title>
<path fill="#1b9e77" stroke="#000000" d="M1149,-52C1149,-52 977,-52 977,-52 971,-52 965,-46 965,-40 965,-40 965,-24 965,-24 965,-18 971,-12 977,-12 977,-12 1149,-12 1149,-12 1155,-12 1161,-18 1161,-24 1161,-24 1161,-40 1161,-40 1161,-46 1155,-52 1149,-52"/>
<text text-anchor="start" x="1006.876" y="-38" font-family="arial" font-weight="bold" font-size="10.00" fill="#000000"> you mean , his window ?</text>
<text text-anchor="start" x="991.0385" y="-21" font-family="arial" font-size="10.00" fill="#000000">What do you mean, his window?</text>
</g>
<!-- n9&#45;&gt;n4 -->
<g id="edge6" class="edge">
<title>n9&#45;&gt;n4</title>
<path fill="none" stroke="#00ff00" d="M1063,-52.2365C1063,-64.636 1063,-80.8752 1063,-95.4625"/>
<polygon fill="#00ff00" stroke="#00ff00" points="1059.5001,-95.7139 1063,-105.7139 1066.5001,-95.714 1059.5001,-95.7139"/>
</g>
</g>
</svg>
