
<!-- Generated by graphviz version 2.40.1 (20161225.0304)
 -->
<!-- Title: Argument Map Pages: 1 -->
<svg width="720pt" height="114pt"
 viewBox="0.00 0.00 720.00 113.90" xmlns="http://www.w3.org/2000/svg" xmlns:xlink="http://www.w3.org/1999/xlink">
<g id="graph0" class="graph" transform="scale(.678 .678) rotate(0) translate(4 164)">
<title>Argument Map</title>
<!-- n0 -->
<g id="node1" class="node">
<title>n0</title>
<path fill="#ffffff" stroke="#1b9e77" stroke-width="2" d="M186,-160C186,-160 12,-160 12,-160 6,-160 0,-154 0,-148 0,-148 0,-100 0,-100 0,-94 6,-88 12,-88 12,-88 186,-88 186,-88 192,-88 198,-94 198,-100 198,-100 198,-148 198,-148 198,-154 192,-160 186,-160"/>
<text text-anchor="start" x="9.543" y="-146" font-family="arial" font-weight="bold" font-size="10.00" fill="#000000"> I was walking home from work the other</text>
<text text-anchor="start" x="65.098" y="-136" font-family="arial" font-weight="bold" font-size="10.00" fill="#000000"> night , and this</text>
<text text-anchor="start" x="11.2175" y="-121" font-family="arial" font-size="10.00" fill="#000000">Well, I was walking home from work the</text>
<text text-anchor="start" x="19.5285" y="-109" font-family="arial" font-size="10.00" fill="#000000"> other night, and this guy got right in</text>
<text text-anchor="start" x="78.7185" y="-97" font-family="arial" font-size="10.00" fill="#000000"> my face.</text>
</g>
<!-- n1 -->
<g id="node2" class="node">
<title>n1</title>
<path fill="#ffffff" stroke="#1b9e77" stroke-width="2" d="M400,-156C400,-156 228,-156 228,-156 222,-156 216,-150 216,-144 216,-144 216,-104 216,-104 216,-98 222,-92 228,-92 228,-92 400,-92 400,-92 406,-92 412,-98 412,-104 412,-104 412,-144 412,-144 412,-150 406,-156 400,-156"/>
<text text-anchor="start" x="299.2735" y="-142" font-family="arial" font-weight="bold" font-size="10.00" fill="#000000"> I think</text>
<text text-anchor="start" x="233.6925" y="-125" font-family="arial" font-size="10.00" fill="#000000">But I tried out your suggestion, and I</text>
<text text-anchor="start" x="233.982" y="-113" font-family="arial" font-size="10.00" fill="#000000"> think it actually did work a couple of</text>
<text text-anchor="start" x="299.278" y="-101" font-family="arial" font-size="10.00" fill="#000000"> times.</text>
</g>
<!-- n2 -->
<g id="node3" class="node">
<title>n2</title>
<path fill="#ffffff" stroke="#1b9e77" stroke-width="2" d="M614,-150C614,-150 442,-150 442,-150 436,-150 430,-144 430,-138 430,-138 430,-110 430,-110 430,-104 436,-98 442,-98 442,-98 614,-98 614,-98 620,-98 626,-104 626,-110 626,-110 626,-138 626,-138 626,-144 620,-150 614,-150"/>
<text text-anchor="start" x="513.5525" y="-136" font-family="arial" font-weight="bold" font-size="10.00" fill="#000000"> When</text>
<text text-anchor="start" x="445.7515" y="-119" font-family="arial" font-size="10.00" fill="#000000">When you work that late at the Lusty,</text>
<text text-anchor="start" x="467.693" y="-107" font-family="arial" font-size="10.00" fill="#000000"> you get to spend the night.</text>
</g>
<!-- n3 -->
<g id="node4" class="node">
<title>n3</title>
<path fill="#ffffff" stroke="#1b9e77" stroke-width="2" d="M1042,-154C1042,-154 870,-154 870,-154 864,-154 858,-148 858,-142 858,-142 858,-106 858,-106 858,-100 864,-94 870,-94 870,-94 1042,-94 1042,-94 1048,-94 1054,-100 1054,-106 1054,-106 1054,-142 1054,-142 1054,-148 1048,-154 1042,-154"/>
<text text-anchor="start" x="874.8615" y="-140" font-family="arial" font-weight="bold" font-size="10.00" fill="#000000"> I have so much to tell you about this</text>
<text text-anchor="start" x="932.1045" y="-130" font-family="arial" font-weight="bold" font-size="10.00" fill="#000000"> new place</text>
<text text-anchor="start" x="876.251" y="-115" font-family="arial" font-size="10.00" fill="#000000">I have so much to tell you about this</text>
<text text-anchor="start" x="898.497" y="-103" font-family="arial" font-size="10.00" fill="#000000"> new place I&#39;m working at.</text>
</g>
<!-- n4 -->
<g id="node5" class="node">
<title>n4</title>
<path fill="#ffffff" stroke="#1b9e77" stroke-width="2" d="M828,-156C828,-156 656,-156 656,-156 650,-156 644,-150 644,-144 644,-144 644,-104 644,-104 644,-98 650,-92 656,-92 656,-92 828,-92 828,-92 834,-92 840,-98 840,-104 840,-104 840,-144 840,-144 840,-150 834,-156 828,-156"/>
<text text-anchor="start" x="683.3865" y="-142" font-family="arial" font-weight="bold" font-size="10.00" fill="#000000"> Coming home from work ,</text>
<text text-anchor="start" x="658.661" y="-125" font-family="arial" font-size="10.00" fill="#000000">Coming home from work, I walk down</text>
<text text-anchor="start" x="662.543" y="-113" font-family="arial" font-size="10.00" fill="#000000"> Market Street, and it&#39;s the real drag</text>
<text text-anchor="start" x="719.2205" y="-101" font-family="arial" font-size="10.00" fill="#000000"> of my life.</text>
</g>
<!-- n5 -->
<g id="node6" class="node">
<title>n5</title>
<path fill="#1b9e77" stroke="#000000" d="M185,-52C185,-52 13,-52 13,-52 7,-52 1,-46 1,-40 1,-40 1,-12 1,-12 1,-6 7,0 13,0 13,0 185,0 185,0 191,0 197,-6 197,-12 197,-12 197,-40 197,-40 197,-46 191,-52 185,-52"/>
<text text-anchor="start" x="12.5915" y="-38" font-family="arial" font-weight="bold" font-size="10.00" fill="#000000"> you walking in a provocative manner ?</text>
<text text-anchor="start" x="23.154" y="-21" font-family="arial" font-size="10.00" fill="#000000">Were you walking in a provocative</text>
<text text-anchor="start" x="77.884" y="-9" font-family="arial" font-size="10.00" fill="#000000"> manner?</text>
</g>
<!-- n5&#45;&gt;n0 -->
<g id="edge1" class="edge">
<title>n5&#45;&gt;n0</title>
<path fill="none" stroke="#00ff00" d="M99,-52.0049C99,-59.9117 99,-68.8516 99,-77.6755"/>
<polygon fill="#00ff00" stroke="#00ff00" points="95.5001,-77.9118 99,-87.9118 102.5001,-77.9118 95.5001,-77.9118"/>
</g>
<!-- n6 -->
<g id="node7" class="node">
<title>n6</title>
<path fill="#1b9e77" stroke="#000000" d="M400,-52C400,-52 228,-52 228,-52 222,-52 216,-46 216,-40 216,-40 216,-12 216,-12 216,-6 222,0 228,0 228,0 400,0 400,0 406,0 412,-6 412,-12 412,-12 412,-40 412,-40 412,-46 406,-52 400,-52"/>
<text text-anchor="start" x="305.112" y="-38" font-family="arial" font-weight="bold" font-size="10.00" fill="#000000"> Did</text>
<text text-anchor="start" x="230.3565" y="-21" font-family="arial" font-size="10.00" fill="#000000">Did you use the counting technique to</text>
<text text-anchor="start" x="249.258" y="-9" font-family="arial" font-size="10.00" fill="#000000"> help you control your anger?</text>
</g>
<!-- n6&#45;&gt;n1 -->
<g id="edge2" class="edge">
<title>n6&#45;&gt;n1</title>
<path fill="none" stroke="#00ff00" d="M314,-52.0049C314,-61.0954 314,-71.5516 314,-81.6269"/>
<polygon fill="#00ff00" stroke="#00ff00" points="310.5001,-81.9153 314,-91.9154 317.5001,-81.9154 310.5001,-81.9153"/>
</g>
<!-- n7 -->
<g id="node8" class="node">
<title>n7</title>
<path fill="#1b9e77" stroke="#000000" d="M721,-52C721,-52 549,-52 549,-52 543,-52 537,-46 537,-40 537,-40 537,-12 537,-12 537,-6 543,0 549,0 549,0 721,0 721,0 727,0 733,-6 733,-12 733,-12 733,-40 733,-40 733,-46 727,-52 721,-52"/>
<text text-anchor="start" x="627.2215" y="-38" font-family="arial" font-weight="bold" font-size="10.00" fill="#000000"> Do</text>
<text text-anchor="start" x="556.376" y="-21" font-family="arial" font-size="10.00" fill="#000000">Do you normally react with anger to</text>
<text text-anchor="start" x="594.1565" y="-9" font-family="arial" font-size="10.00" fill="#000000"> these comments?</text>
</g>
<!-- n7&#45;&gt;n2 -->
<g id="edge3" class="edge">
<title>n7&#45;&gt;n2</title>
<path fill="none" stroke="#00ff00" d="M606.6069,-52.0049C593.5472,-63.9661 577.9061,-78.2916 564.0273,-91.003"/>
<polygon fill="#00ff00" stroke="#00ff00" points="561.5363,-88.5384 556.5258,-97.8736 566.2642,-93.7005 561.5363,-88.5384"/>
</g>
<!-- n7&#45;&gt;n4 -->
<g id="edge5" class="edge">
<title>n7&#45;&gt;n4</title>
<path fill="none" stroke="#00ff00" d="M663.3931,-52.0049C674.4677,-62.148 687.3986,-73.9913 699.537,-85.1087"/>
<polygon fill="#00ff00" stroke="#00ff00" points="697.2304,-87.7423 706.9688,-91.9154 701.9584,-82.5802 697.2304,-87.7423"/>
</g>
<!-- n8 -->
<g id="node9" class="node">
<title>n8</title>
<path fill="#1b9e77" stroke="#000000" d="M1042,-46C1042,-46 870,-46 870,-46 864,-46 858,-40 858,-34 858,-34 858,-18 858,-18 858,-12 864,-6 870,-6 870,-6 1042,-6 1042,-6 1048,-6 1054,-12 1054,-18 1054,-18 1054,-34 1054,-34 1054,-40 1048,-46 1042,-46"/>
<text text-anchor="start" x="915.153" y="-32" font-family="arial" font-weight="bold" font-size="10.00" fill="#000000"> The video place ?</text>
<text text-anchor="start" x="917.932" y="-15" font-family="arial" font-size="10.00" fill="#000000">The video place?</text>
</g>
<!-- n8&#45;&gt;n3 -->
<g id="edge4" class="edge">
<title>n8&#45;&gt;n3</title>
<path fill="none" stroke="#00ff00" d="M956,-46.3057C956,-57.0997 956,-70.7622 956,-83.6094"/>
<polygon fill="#00ff00" stroke="#00ff00" points="952.5001,-83.6675 956,-93.6675 959.5001,-83.6675 952.5001,-83.6675"/>
</g>
</g>
</svg>
