
<!-- Generated by graphviz version 2.40.1 (20161225.0304)
 -->
<!-- Title: Argument Map Pages: 1 -->
<svg width="720pt" height="89pt"
 viewBox="0.00 0.00 720.00 88.91" xmlns="http://www.w3.org/2000/svg" xmlns:xlink="http://www.w3.org/1999/xlink">
<g id="graph0" class="graph" transform="scale(.4832 .4832) rotate(0) translate(4 180)">
<title>Argument Map</title>
<!-- n0 -->
<g id="node1" class="node">
<title>n0</title>
<path fill="#ffffff" stroke="#1b9e77" stroke-width="2" d="M398,-174C398,-174 226,-174 226,-174 220,-174 214,-168 214,-162 214,-162 214,-126 214,-126 214,-120 220,-114 226,-114 226,-114 398,-114 398,-114 404,-114 410,-120 410,-126 410,-126 410,-162 410,-162 410,-168 404,-174 398,-174"/>
<text text-anchor="start" x="231.1525" y="-160" font-family="arial" font-weight="bold" font-size="10.00" fill="#000000"> But if there &#39;s a way to work through</text>
<text text-anchor="start" x="305.3325" y="-150" font-family="arial" font-weight="bold" font-size="10.00" fill="#000000"> it ,</text>
<text text-anchor="start" x="233.9315" y="-135" font-family="arial" font-size="10.00" fill="#000000">But if there&#39;s a way to work through</text>
<text text-anchor="start" x="270.887" y="-123" font-family="arial" font-size="10.00" fill="#000000"> it, I&#39;d like to find it.</text>
</g>
<!-- n1 -->
<g id="node2" class="node">
<title>n1</title>
<path fill="#ffffff" stroke="#1b9e77" stroke-width="2" d="M826,-174C826,-174 654,-174 654,-174 648,-174 642,-168 642,-162 642,-162 642,-126 642,-126 642,-120 648,-114 654,-114 654,-114 826,-114 826,-114 832,-114 838,-120 838,-126 838,-126 838,-162 838,-162 838,-168 832,-174 826,-174"/>
<text text-anchor="start" x="665.8115" y="-160" font-family="arial" font-weight="bold" font-size="10.00" fill="#000000"> I would love to be able to work at</text>
<text text-anchor="start" x="658.592" y="-150" font-family="arial" font-weight="bold" font-size="10.00" fill="#000000"> Video Free America during the day .</text>
<text text-anchor="start" x="667.201" y="-135" font-family="arial" font-size="10.00" fill="#000000">I would love to be able to work at</text>
<text text-anchor="start" x="659.9815" y="-123" font-family="arial" font-size="10.00" fill="#000000"> Video Free America during the day.</text>
</g>
<!-- n2 -->
<g id="node3" class="node">
<title>n2</title>
<path fill="#ffffff" stroke="#1b9e77" stroke-width="2" d="M1040,-176C1040,-176 868,-176 868,-176 862,-176 856,-170 856,-164 856,-164 856,-124 856,-124 856,-118 862,-112 868,-112 868,-112 1040,-112 1040,-112 1046,-112 1052,-118 1052,-124 1052,-124 1052,-164 1052,-164 1052,-170 1046,-176 1040,-176"/>
<text text-anchor="start" x="925.662" y="-162" font-family="arial" font-weight="bold" font-size="10.00" fill="#000000"> I do n&#39;t think</text>
<text text-anchor="start" x="871.7565" y="-145" font-family="arial" font-size="10.00" fill="#000000">I don&#39;t think I can keep working these</text>
<text text-anchor="start" x="870.0865" y="-133" font-family="arial" font-size="10.00" fill="#000000"> two jobs and keep these weird hours,</text>
<text text-anchor="start" x="870.649" y="-121" font-family="arial" font-size="10.00" fill="#000000"> but I&#39;m not sure what to do right now.</text>
</g>
<!-- n3 -->
<g id="node4" class="node">
<title>n3</title>
<path fill="#ffffff" stroke="#1b9e77" stroke-width="2" d="M1255.5,-176C1255.5,-176 1082.5,-176 1082.5,-176 1076.5,-176 1070.5,-170 1070.5,-164 1070.5,-164 1070.5,-124 1070.5,-124 1070.5,-118 1076.5,-112 1082.5,-112 1082.5,-112 1255.5,-112 1255.5,-112 1261.5,-112 1267.5,-118 1267.5,-124 1267.5,-124 1267.5,-164 1267.5,-164 1267.5,-170 1261.5,-176 1255.5,-176"/>
<text text-anchor="start" x="1089.4815" y="-162" font-family="arial" font-weight="bold" font-size="10.00" fill="#000000"> I worked a double Thursday night &#45;&#45;</text>
<text text-anchor="start" x="1080.5925" y="-145" font-family="arial" font-size="10.00" fill="#000000">I worked a double Thursday night&#45;&#45;I was</text>
<text text-anchor="start" x="1089.196" y="-133" font-family="arial" font-size="10.00" fill="#000000"> dancing from six to eleven and then</text>
<text text-anchor="start" x="1091.9825" y="-121" font-family="arial" font-size="10.00" fill="#000000"> from eleven to four in the morning.</text>
</g>
<!-- n4 -->
<g id="node5" class="node">
<title>n4</title>
<path fill="#ffffff" stroke="#1b9e77" stroke-width="2" d="M1470,-170C1470,-170 1298,-170 1298,-170 1292,-170 1286,-164 1286,-158 1286,-158 1286,-130 1286,-130 1286,-124 1292,-118 1298,-118 1298,-118 1470,-118 1470,-118 1476,-118 1482,-124 1482,-130 1482,-130 1482,-158 1482,-158 1482,-164 1476,-170 1470,-170"/>
<text text-anchor="start" x="1373.1625" y="-156" font-family="arial" font-weight="bold" font-size="10.00" fill="#000000"> Oh ,</text>
<text text-anchor="start" x="1303.6955" y="-139" font-family="arial" font-size="10.00" fill="#000000">Oh, I guess I should explain the way</text>
<text text-anchor="start" x="1334.2635" y="-127" font-family="arial" font-size="10.00" fill="#000000"> the Lusty Lady works.</text>
</g>
<!-- n5 -->
<g id="node6" class="node">
<title>n5</title>
<path fill="#1b9e77" stroke="#000000" d="M184,-58C184,-58 12,-58 12,-58 6,-58 0,-52 0,-46 0,-46 0,-30 0,-30 0,-24 6,-18 12,-18 12,-18 184,-18 184,-18 190,-18 196,-24 196,-30 196,-30 196,-46 196,-46 196,-52 190,-58 184,-58"/>
<text text-anchor="start" x="82.9935" y="-44" font-family="arial" font-weight="bold" font-size="10.00" fill="#000000"> I see .</text>
<text text-anchor="start" x="85.7725" y="-27" font-family="arial" font-size="10.00" fill="#000000">I see.</text>
</g>
<!-- n5&#45;&gt;n0 -->
<g id="edge1" class="edge">
<title>n5&#45;&gt;n0</title>
<path fill="none" stroke="#00ff00" d="M138.5033,-58.0624C167.7578,-72.5529 207.9993,-92.4857 242.3619,-109.5063"/>
<polygon fill="#00ff00" stroke="#00ff00" points="240.9066,-112.6913 251.4211,-113.9936 244.0136,-106.4186 240.9066,-112.6913"/>
</g>
<!-- n6 -->
<g id="node7" class="node">
<title>n6</title>
<path fill="#1b9e77" stroke="#000000" d="M398,-76C398,-76 226,-76 226,-76 220,-76 214,-70 214,-64 214,-64 214,-12 214,-12 214,-6 220,0 226,0 226,0 398,0 398,0 404,0 410,-6 410,-12 410,-12 410,-64 410,-64 410,-70 404,-76 398,-76"/>
<text text-anchor="start" x="289.7695" y="-62" font-family="arial" font-weight="bold" font-size="10.00" fill="#000000"> You want</text>
<text text-anchor="start" x="226.697" y="-45" font-family="arial" font-size="10.00" fill="#000000">You want me to help you work through</text>
<text text-anchor="start" x="236.1405" y="-33" font-family="arial" font-size="10.00" fill="#000000"> your anger, so you can feel better</text>
<text text-anchor="start" x="234.2035" y="-21" font-family="arial" font-size="10.00" fill="#000000"> about serving your customers as a</text>
<text text-anchor="start" x="292.5545" y="-9" font-family="arial" font-size="10.00" fill="#000000"> stripper.</text>
</g>
<!-- n6&#45;&gt;n0 -->
<g id="edge2" class="edge">
<title>n6&#45;&gt;n0</title>
<path fill="none" stroke="#00ff00" d="M312,-76.2684C312,-85.134 312,-94.597 312,-103.5526"/>
<polygon fill="#00ff00" stroke="#00ff00" points="308.5001,-103.7665 312,-113.7665 315.5001,-103.7665 308.5001,-103.7665"/>
</g>
<!-- n7 -->
<g id="node8" class="node">
<title>n7</title>
<path fill="#1b9e77" stroke="#000000" d="M612,-58C612,-58 440,-58 440,-58 434,-58 428,-52 428,-46 428,-46 428,-30 428,-30 428,-24 434,-18 440,-18 440,-18 612,-18 612,-18 618,-18 624,-24 624,-30 624,-30 624,-46 624,-46 624,-52 618,-58 612,-58"/>
<text text-anchor="start" x="517.112" y="-44" font-family="arial" font-weight="bold" font-size="10.00" fill="#000000"> Did</text>
<text text-anchor="start" x="489.6045" y="-27" font-family="arial" font-size="10.00" fill="#000000">Did I get it right?</text>
</g>
<!-- n7&#45;&gt;n0 -->
<g id="edge3" class="edge">
<title>n7&#45;&gt;n0</title>
<path fill="none" stroke="#00ff00" d="M485.4967,-58.0624C456.2422,-72.5529 416.0007,-92.4857 381.6381,-109.5063"/>
<polygon fill="#00ff00" stroke="#00ff00" points="379.9864,-106.4186 372.5789,-113.9936 383.0934,-112.6913 379.9864,-106.4186"/>
</g>
<!-- n8 -->
<g id="node9" class="node">
<title>n8</title>
<path fill="#1b9e77" stroke="#000000" d="M826,-58C826,-58 654,-58 654,-58 648,-58 642,-52 642,-46 642,-46 642,-30 642,-30 642,-24 648,-18 654,-18 654,-18 826,-18 826,-18 832,-18 838,-24 838,-30 838,-30 838,-46 838,-46 838,-52 832,-58 826,-58"/>
<text text-anchor="start" x="701.3735" y="-44" font-family="arial" font-weight="bold" font-size="10.00" fill="#000000"> What about SII ?</text>
<text text-anchor="start" x="704.1525" y="-27" font-family="arial" font-size="10.00" fill="#000000">What about SII?</text>
</g>
<!-- n8&#45;&gt;n1 -->
<g id="edge4" class="edge">
<title>n8&#45;&gt;n1</title>
<path fill="none" stroke="#00ff00" d="M740,-58.4379C740,-71.2446 740,-88.1928 740,-103.6247"/>
<polygon fill="#00ff00" stroke="#00ff00" points="736.5001,-103.9966 740,-113.9966 743.5001,-103.9967 736.5001,-103.9966"/>
</g>
<!-- n9 -->
<g id="node10" class="node">
<title>n9</title>
<path fill="#1b9e77" stroke="#000000" d="M1040,-58C1040,-58 868,-58 868,-58 862,-58 856,-52 856,-46 856,-46 856,-30 856,-30 856,-24 862,-18 868,-18 868,-18 1040,-18 1040,-18 1046,-18 1052,-24 1052,-30 1052,-30 1052,-46 1052,-46 1052,-52 1046,-58 1040,-58"/>
<text text-anchor="start" x="929.275" y="-44" font-family="arial" font-weight="bold" font-size="10.00" fill="#000000"> Where are</text>
<text text-anchor="start" x="904.8195" y="-27" font-family="arial" font-size="10.00" fill="#000000">Where are you going?</text>
</g>
<!-- n9&#45;&gt;n2 -->
<g id="edge5" class="edge">
<title>n9&#45;&gt;n2</title>
<path fill="none" stroke="#00ff00" d="M954,-58.4379C954,-70.7558 954,-86.9051 954,-101.8514"/>
<polygon fill="#00ff00" stroke="#00ff00" points="950.5001,-101.9448 954,-111.9448 957.5001,-101.9449 950.5001,-101.9448"/>
</g>
<!-- n10 -->
<g id="node11" class="node">
<title>n10</title>
<path fill="#1b9e77" stroke="#000000" d="M1255,-58C1255,-58 1083,-58 1083,-58 1077,-58 1071,-52 1071,-46 1071,-46 1071,-30 1071,-30 1071,-24 1077,-18 1083,-18 1083,-18 1255,-18 1255,-18 1261,-18 1267,-24 1267,-30 1267,-30 1267,-46 1267,-46 1267,-52 1261,-58 1255,-58"/>
<text text-anchor="start" x="1161.2215" y="-44" font-family="arial" font-weight="bold" font-size="10.00" fill="#000000"> Do</text>
<text text-anchor="start" x="1086.7595" y="-27" font-family="arial" font-size="10.00" fill="#000000">Do you want to work so many hours?</text>
</g>
<!-- n10&#45;&gt;n3 -->
<g id="edge6" class="edge">
<title>n10&#45;&gt;n3</title>
<path fill="none" stroke="#00ff00" d="M1169,-58.4379C1169,-70.7558 1169,-86.9051 1169,-101.8514"/>
<polygon fill="#00ff00" stroke="#00ff00" points="1165.5001,-101.9448 1169,-111.9448 1172.5001,-101.9449 1165.5001,-101.9448"/>
</g>
<!-- n11 -->
<g id="node12" class="node">
<title>n11</title>
<path fill="#1b9e77" stroke="#000000" d="M1470,-58C1470,-58 1298,-58 1298,-58 1292,-58 1286,-52 1286,-46 1286,-46 1286,-30 1286,-30 1286,-24 1292,-18 1298,-18 1298,-18 1470,-18 1470,-18 1476,-18 1482,-24 1482,-30 1482,-30 1482,-46 1482,-46 1482,-52 1476,-58 1470,-58"/>
<text text-anchor="start" x="1330.0865" y="-44" font-family="arial" font-weight="bold" font-size="10.00" fill="#000000"> I understand the setup .</text>
<text text-anchor="start" x="1315.3595" y="-27" font-family="arial" font-size="10.00" fill="#000000">No, but I understand the setup.</text>
</g>
<!-- n11&#45;&gt;n4 -->
<g id="edge7" class="edge">
<title>n11&#45;&gt;n4</title>
<path fill="none" stroke="#00ff00" d="M1384,-58.4379C1384,-72.3548 1384,-91.1622 1384,-107.6"/>
<polygon fill="#00ff00" stroke="#00ff00" points="1380.5001,-107.9846 1384,-117.9847 1387.5001,-107.9847 1380.5001,-107.9846"/>
</g>
</g>
</svg>
