
<!-- Generated by graphviz version 2.40.1 (20161225.0304)
 -->
<!-- Title: Argument Map Pages: 1 -->
<svg width="720pt" height="89pt"
 viewBox="0.00 0.00 720.00 88.84" xmlns="http://www.w3.org/2000/svg" xmlns:xlink="http://www.w3.org/1999/xlink">
<g id="graph0" class="graph" transform="scale(.423 .423) rotate(0) translate(4 206)">
<title>Argument Map</title>
<!-- n0 -->
<g id="node1" class="node">
<title>n0</title>
<path fill="#ffffff" stroke="#1b9e77" stroke-width="2" d="M184,-202C184,-202 12,-202 12,-202 6,-202 0,-196 0,-190 0,-190 0,-132 0,-132 0,-126 6,-120 12,-120 12,-120 184,-120 184,-120 190,-120 196,-126 196,-132 196,-132 196,-190 196,-190 196,-196 190,-202 184,-202"/>
<text text-anchor="start" x="28.8135" y="-188" font-family="arial" font-weight="bold" font-size="10.00" fill="#000000"> I need is a way to separate my</text>
<text text-anchor="start" x="15.4865" y="-178" font-family="arial" font-weight="bold" font-size="10.00" fill="#000000"> feelings about work from my feelings</text>
<text text-anchor="start" x="59.654" y="-168" font-family="arial" font-weight="bold" font-size="10.00" fill="#000000"> about the world .</text>
<text text-anchor="start" x="17.1455" y="-153" font-family="arial" font-size="10.00" fill="#000000">What I need is a way to separate my</text>
<text text-anchor="start" x="15.4865" y="-141" font-family="arial" font-size="10.00" fill="#000000"> feelings about work from my feelings</text>
<text text-anchor="start" x="61.0435" y="-129" font-family="arial" font-size="10.00" fill="#000000"> about the world.</text>
</g>
<!-- n1 -->
<g id="node2" class="node">
<title>n1</title>
<path fill="#ffffff" stroke="#1b9e77" stroke-width="2" d="M398,-187C398,-187 226,-187 226,-187 220,-187 214,-181 214,-175 214,-175 214,-147 214,-147 214,-141 220,-135 226,-135 226,-135 398,-135 398,-135 404,-135 410,-141 410,-147 410,-147 410,-175 410,-175 410,-181 404,-187 398,-187"/>
<text text-anchor="start" x="301.717" y="-173" font-family="arial" font-weight="bold" font-size="10.00" fill="#000000"> And</text>
<text text-anchor="start" x="227.8145" y="-156" font-family="arial" font-size="10.00" fill="#000000">And I feel different from all the women</text>
<text text-anchor="start" x="252.547" y="-144" font-family="arial" font-size="10.00" fill="#000000"> at work, at Lusty&#39;s I mean.</text>
</g>
<!-- n2 -->
<g id="node3" class="node">
<title>n2</title>
<path fill="#ffffff" stroke="#1b9e77" stroke-width="2" d="M612,-187C612,-187 440,-187 440,-187 434,-187 428,-181 428,-175 428,-175 428,-147 428,-147 428,-141 434,-135 440,-135 440,-135 612,-135 612,-135 618,-135 624,-141 624,-147 624,-147 624,-175 624,-175 624,-181 618,-187 612,-187"/>
<text text-anchor="start" x="523.221" y="-173" font-family="arial" font-weight="bold" font-size="10.00" fill="#000000"> I</text>
<text text-anchor="start" x="441.81" y="-156" font-family="arial" font-size="10.00" fill="#000000">Yes, everyone who works at the place</text>
<text text-anchor="start" x="440.4235" y="-144" font-family="arial" font-size="10.00" fill="#000000"> where I edit offered help in some way.</text>
</g>
<!-- n3 -->
<g id="node4" class="node">
<title>n3</title>
<path fill="#ffffff" stroke="#1b9e77" stroke-width="2" d="M826,-193C826,-193 654,-193 654,-193 648,-193 642,-187 642,-181 642,-181 642,-141 642,-141 642,-135 648,-129 654,-129 654,-129 826,-129 826,-129 832,-129 838,-135 838,-141 838,-141 838,-181 838,-181 838,-187 832,-193 826,-193"/>
<text text-anchor="start" x="666.916" y="-179" font-family="arial" font-weight="bold" font-size="10.00" fill="#000000"> this happened to me a lot before</text>
<text text-anchor="start" x="664.706" y="-162" font-family="arial" font-size="10.00" fill="#000000">I&#39;m sure this happened to me a lot</text>
<text text-anchor="start" x="659.142" y="-150" font-family="arial" font-size="10.00" fill="#000000"> before I started working at the Lusty</text>
<text text-anchor="start" x="667.7515" y="-138" font-family="arial" font-size="10.00" fill="#000000"> Lady, but I used to just ignore it.</text>
</g>
<!-- n4 -->
<g id="node5" class="node">
<title>n4</title>
<path fill="#ffffff" stroke="#1b9e77" stroke-width="2" d="M1361,-193C1361,-193 1189,-193 1189,-193 1183,-193 1177,-187 1177,-181 1177,-181 1177,-141 1177,-141 1177,-135 1183,-129 1189,-129 1189,-129 1361,-129 1361,-129 1367,-129 1373,-135 1373,-141 1373,-141 1373,-181 1373,-181 1373,-187 1367,-193 1361,-193"/>
<text text-anchor="start" x="1219.4325" y="-179" font-family="arial" font-weight="bold" font-size="10.00" fill="#000000"> I &#39;m sitting , than anyone</text>
<text text-anchor="start" x="1190.271" y="-162" font-family="arial" font-size="10.00" fill="#000000">She&#39;s just so much cooler, from where</text>
<text text-anchor="start" x="1197.212" y="-150" font-family="arial" font-size="10.00" fill="#000000"> I&#39;m sitting, than anyone I work with</text>
<text text-anchor="start" x="1260.549" y="-138" font-family="arial" font-size="10.00" fill="#000000"> at SII.</text>
</g>
<!-- n5 -->
<g id="node6" class="node">
<title>n5</title>
<path fill="#1b9e77" stroke="#000000" d="M184,-68C184,-68 12,-68 12,-68 6,-68 0,-62 0,-56 0,-56 0,-28 0,-28 0,-22 6,-16 12,-16 12,-16 184,-16 184,-16 190,-16 196,-22 196,-28 196,-28 196,-56 196,-56 196,-62 190,-68 184,-68"/>
<text text-anchor="start" x="84.942" y="-54" font-family="arial" font-weight="bold" font-size="10.00" fill="#000000"> Have</text>
<text text-anchor="start" x="11.5895" y="-37" font-family="arial" font-size="10.00" fill="#000000">Have you ever considered taking some</text>
<text text-anchor="start" x="54.1095" y="-25" font-family="arial" font-size="10.00" fill="#000000"> time off from work?</text>
</g>
<!-- n5&#45;&gt;n0 -->
<g id="edge1" class="edge">
<title>n5&#45;&gt;n0</title>
<path fill="none" stroke="#00ff00" d="M98,-68.1151C98,-80.3371 98,-95.338 98,-109.6906"/>
<polygon fill="#00ff00" stroke="#00ff00" points="94.5001,-109.9779 98,-119.978 101.5001,-109.978 94.5001,-109.9779"/>
</g>
<!-- n6 -->
<g id="node7" class="node">
<title>n6</title>
<path fill="#1b9e77" stroke="#000000" d="M398,-62C398,-62 226,-62 226,-62 220,-62 214,-56 214,-50 214,-50 214,-34 214,-34 214,-28 220,-22 226,-22 226,-22 398,-22 398,-22 404,-22 410,-28 410,-34 410,-34 410,-50 410,-50 410,-56 404,-62 398,-62"/>
<text text-anchor="start" x="256.426" y="-48" font-family="arial" font-weight="bold" font-size="10.00" fill="#000000"> Who are the cool ones ?</text>
<text text-anchor="start" x="259.205" y="-31" font-family="arial" font-size="10.00" fill="#000000">Who are the cool ones?</text>
</g>
<!-- n6&#45;&gt;n1 -->
<g id="edge2" class="edge">
<title>n6&#45;&gt;n1</title>
<path fill="none" stroke="#00ff00" d="M312,-62.1867C312,-79.24 312,-104.092 312,-124.6058"/>
<polygon fill="#00ff00" stroke="#00ff00" points="308.5001,-124.8734 312,-134.8734 315.5001,-124.8735 308.5001,-124.8734"/>
</g>
<!-- n7 -->
<g id="node8" class="node">
<title>n7</title>
<path fill="#1b9e77" stroke="#000000" d="M612,-62C612,-62 440,-62 440,-62 434,-62 428,-56 428,-50 428,-50 428,-34 428,-34 428,-28 434,-22 440,-22 440,-22 612,-22 612,-22 618,-22 624,-28 624,-34 624,-34 624,-50 624,-50 624,-56 618,-62 612,-62"/>
<text text-anchor="start" x="481.5385" y="-48" font-family="arial" font-weight="bold" font-size="10.00" fill="#000000"> who can help you ?</text>
<text text-anchor="start" x="444.305" y="-31" font-family="arial" font-size="10.00" fill="#000000">Is there someone who can help you?</text>
</g>
<!-- n7&#45;&gt;n2 -->
<g id="edge3" class="edge">
<title>n7&#45;&gt;n2</title>
<path fill="none" stroke="#00ff00" d="M526,-62.1867C526,-79.24 526,-104.092 526,-124.6058"/>
<polygon fill="#00ff00" stroke="#00ff00" points="522.5001,-124.8734 526,-134.8734 529.5001,-124.8735 522.5001,-124.8734"/>
</g>
<!-- n8 -->
<g id="node9" class="node">
<title>n8</title>
<path fill="#1b9e77" stroke="#000000" d="M826,-68C826,-68 654,-68 654,-68 648,-68 642,-62 642,-56 642,-56 642,-28 642,-28 642,-22 648,-16 654,-16 654,-16 826,-16 826,-16 832,-16 838,-22 838,-28 838,-28 838,-56 838,-56 838,-62 832,-68 826,-68"/>
<text text-anchor="start" x="732.2215" y="-54" font-family="arial" font-weight="bold" font-size="10.00" fill="#000000"> Do</text>
<text text-anchor="start" x="661.376" y="-37" font-family="arial" font-size="10.00" fill="#000000">Do you normally react with anger to</text>
<text text-anchor="start" x="699.1565" y="-25" font-family="arial" font-size="10.00" fill="#000000"> these comments?</text>
</g>
<!-- n8&#45;&gt;n3 -->
<g id="edge4" class="edge">
<title>n8&#45;&gt;n3</title>
<path fill="none" stroke="#00ff00" d="M740,-68.1151C740,-82.8461 740,-101.6139 740,-118.418"/>
<polygon fill="#00ff00" stroke="#00ff00" points="736.5001,-118.5736 740,-128.5736 743.5001,-118.5737 736.5001,-118.5736"/>
</g>
<!-- n9 -->
<g id="node10" class="node">
<title>n9</title>
<path fill="#1b9e77" stroke="#000000" d="M1040,-62C1040,-62 868,-62 868,-62 862,-62 856,-56 856,-50 856,-50 856,-34 856,-34 856,-28 862,-22 868,-22 868,-22 1040,-22 1040,-22 1046,-22 1052,-28 1052,-34 1052,-34 1052,-50 1052,-50 1052,-56 1046,-62 1040,-62"/>
<text text-anchor="start" x="938.9935" y="-48" font-family="arial" font-weight="bold" font-size="10.00" fill="#000000"> I see .</text>
<text text-anchor="start" x="941.7725" y="-31" font-family="arial" font-size="10.00" fill="#000000">I see.</text>
</g>
<!-- n9&#45;&gt;n4 -->
<g id="edge5" class="edge">
<title>n9&#45;&gt;n4</title>
<path fill="none" stroke="#00ff00" d="M1004.2354,-62.0612C1022.1122,-69.1093 1042.4144,-77.0103 1061,-84 1097.9791,-97.9071 1138.7434,-112.706 1174.6849,-125.5749"/>
<polygon fill="#00ff00" stroke="#00ff00" points="1173.604,-128.9054 1184.1986,-128.9767 1175.9608,-122.3141 1173.604,-128.9054"/>
</g>
<!-- n10 -->
<g id="node11" class="node">
<title>n10</title>
<path fill="#1b9e77" stroke="#000000" d="M1254,-68C1254,-68 1082,-68 1082,-68 1076,-68 1070,-62 1070,-56 1070,-56 1070,-28 1070,-28 1070,-22 1076,-16 1082,-16 1082,-16 1254,-16 1254,-16 1260,-16 1266,-22 1266,-28 1266,-28 1266,-56 1266,-56 1266,-62 1260,-68 1254,-68"/>
<text text-anchor="start" x="1154.663" y="-54" font-family="arial" font-weight="bold" font-size="10.00" fill="#000000"> Lisa ,</text>
<text text-anchor="start" x="1090.1915" y="-37" font-family="arial" font-size="10.00" fill="#000000">Lisa, we got a good start today, but</text>
<text text-anchor="start" x="1135.2175" y="-25" font-family="arial" font-size="10.00" fill="#000000"> our time is up.</text>
</g>
<!-- n10&#45;&gt;n4 -->
<g id="edge6" class="edge">
<title>n10&#45;&gt;n4</title>
<path fill="none" stroke="#00ff00" d="M1191.4816,-68.1151C1205.352,-83.541 1223.2025,-103.3934 1238.8378,-120.7823"/>
<polygon fill="#00ff00" stroke="#00ff00" points="1236.5547,-123.4777 1245.8435,-128.5736 1241.7599,-118.7974 1236.5547,-123.4777"/>
</g>
<!-- n11 -->
<g id="node12" class="node">
<title>n11</title>
<path fill="#1b9e77" stroke="#000000" d="M1468,-62C1468,-62 1296,-62 1296,-62 1290,-62 1284,-56 1284,-50 1284,-50 1284,-34 1284,-34 1284,-28 1290,-22 1296,-22 1296,-22 1468,-22 1468,-22 1474,-22 1480,-28 1480,-34 1480,-34 1480,-50 1480,-50 1480,-56 1474,-62 1468,-62"/>
<text text-anchor="start" x="1328.655" y="-48" font-family="arial" font-weight="bold" font-size="10.00" fill="#000000"> Try out my suggestion .</text>
<text text-anchor="start" x="1331.434" y="-31" font-family="arial" font-size="10.00" fill="#000000">Try out my suggestion.</text>
</g>
<!-- n11&#45;&gt;n4 -->
<g id="edge7" class="edge">
<title>n11&#45;&gt;n4</title>
<path fill="none" stroke="#ff0000" d="M1363.8489,-62.1867C1349.4264,-78.2267 1328.8002,-101.1661 1311.0513,-120.9056"/>
<polygon fill="#ff0000" stroke="#ff0000" points="1308.2401,-118.7974 1304.1565,-128.5736 1313.4453,-123.4777 1308.2401,-118.7974"/>
</g>
<!-- n12 -->
<g id="node13" class="node">
<title>n12</title>
<path fill="#1b9e77" stroke="#000000" d="M1682,-84C1682,-84 1510,-84 1510,-84 1504,-84 1498,-78 1498,-72 1498,-72 1498,-12 1498,-12 1498,-6 1504,0 1510,0 1510,0 1682,0 1682,0 1688,0 1694,-6 1694,-12 1694,-12 1694,-72 1694,-72 1694,-78 1688,-84 1682,-84"/>
<text text-anchor="start" x="1512.0775" y="-70" font-family="arial" font-weight="bold" font-size="10.00" fill="#000000"> outburst coming up , count to ten and</text>
<text text-anchor="start" x="1582.663" y="-60" font-family="arial" font-weight="bold" font-size="10.00" fill="#000000"> see if</text>
<text text-anchor="start" x="1525.979" y="-45" font-family="arial" font-size="10.00" fill="#000000">The next time you feel an angry</text>
<text text-anchor="start" x="1513.467" y="-33" font-family="arial" font-size="10.00" fill="#000000"> outburst coming up, count to ten and</text>
<text text-anchor="start" x="1517.0905" y="-21" font-family="arial" font-size="10.00" fill="#000000"> see if you can control your outward</text>
<text text-anchor="start" x="1549.5985" y="-9" font-family="arial" font-size="10.00" fill="#000000"> expressions of rage.</text>
</g>
<!-- n12&#45;&gt;n4 -->
<g id="edge8" class="edge">
<title>n12&#45;&gt;n4</title>
<path fill="none" stroke="#ff0000" d="M1497.795,-80.6738C1494.8321,-81.8002 1491.8952,-82.9112 1489,-84 1452.0209,-97.9071 1411.2566,-112.706 1375.3151,-125.5749"/>
<polygon fill="#ff0000" stroke="#ff0000" points="1374.0392,-122.3141 1365.8014,-128.9767 1376.396,-128.9054 1374.0392,-122.3141"/>
</g>
</g>
</svg>
