
<!-- Generated by graphviz version 2.40.1 (20161225.0304)
 -->
<!-- Title: Argument Map Pages: 1 -->
<svg width="418pt" height="168pt"
 viewBox="0.00 0.00 418.00 168.00" xmlns="http://www.w3.org/2000/svg" xmlns:xlink="http://www.w3.org/1999/xlink">
<g id="graph0" class="graph" transform="scale(1 1) rotate(0) translate(4 164)">
<title>Argument Map</title>
<!-- n0 -->
<g id="node1" class="node">
<title>n0</title>
<path fill="#ffffff" stroke="#1b9e77" stroke-width="2" d="M184,-154C184,-154 12,-154 12,-154 6,-154 0,-148 0,-142 0,-142 0,-94 0,-94 0,-88 6,-82 12,-82 12,-82 184,-82 184,-82 190,-82 196,-88 196,-94 196,-94 196,-142 196,-142 196,-148 190,-154 184,-154"/>
<text text-anchor="start" x="24.382" y="-140" font-family="arial" font-weight="bold" font-size="10.00" fill="#000000"> I &#39;ll ever want to work in an office</text>
<text text-anchor="start" x="81.604" y="-130" font-family="arial" font-weight="bold" font-size="10.00" fill="#000000"> again .</text>
<text text-anchor="start" x="14.0925" y="-115" font-family="arial" font-size="10.00" fill="#000000">And I&#39;ll have to explain this gap on my</text>
<text text-anchor="start" x="21.0525" y="-103" font-family="arial" font-size="10.00" fill="#000000"> straight job resume if I&#39;ll ever want</text>
<text text-anchor="start" x="39.928" y="-91" font-family="arial" font-size="10.00" fill="#000000"> to work in an office again.</text>
</g>
<!-- n1 -->
<g id="node2" class="node">
<title>n1</title>
<path fill="#ffffff" stroke="#1b9e77" stroke-width="2" d="M398,-160C398,-160 226,-160 226,-160 220,-160 214,-154 214,-148 214,-148 214,-88 214,-88 214,-82 220,-76 226,-76 226,-76 398,-76 398,-76 404,-76 410,-82 410,-88 410,-88 410,-148 410,-148 410,-154 404,-160 398,-160"/>
<text text-anchor="start" x="229.2115" y="-146" font-family="arial" font-weight="bold" font-size="10.00" fill="#000000"> I &#39;m not working quite so many hours</text>
<text text-anchor="start" x="269.7585" y="-136" font-family="arial" font-weight="bold" font-size="10.00" fill="#000000"> at the Lusty Lady ,</text>
<text text-anchor="start" x="226.148" y="-121" font-family="arial" font-size="10.00" fill="#000000">To be honest, now that I&#39;m not working</text>
<text text-anchor="start" x="224.7465" y="-109" font-family="arial" font-size="10.00" fill="#000000"> quite so many hours at the Lusty Lady,</text>
<text text-anchor="start" x="236.148" y="-97" font-family="arial" font-size="10.00" fill="#000000"> things are actually a little better at</text>
<text text-anchor="start" x="303.1075" y="-85" font-family="arial" font-size="10.00" fill="#000000"> SII.</text>
</g>
<!-- n2 -->
<g id="node3" class="node">
<title>n2</title>
<path fill="#1b9e77" stroke="#000000" d="M184,-40C184,-40 12,-40 12,-40 6,-40 0,-34 0,-28 0,-28 0,-12 0,-12 0,-6 6,0 12,0 12,0 184,0 184,0 190,0 196,-6 196,-12 196,-12 196,-28 196,-28 196,-34 190,-40 184,-40"/>
<text text-anchor="start" x="60.214" y="-26" font-family="arial" font-weight="bold" font-size="10.00" fill="#000000"> I do n&#39;t think so .</text>
<text text-anchor="start" x="64.3825" y="-9" font-family="arial" font-size="10.00" fill="#000000">I don&#39;t think so.</text>
</g>
<!-- n2&#45;&gt;n0 -->
<g id="edge1" class="edge">
<title>n2&#45;&gt;n0</title>
<path fill="none" stroke="#00ff00" d="M98,-40.3057C98,-49.4914 98,-60.7544 98,-71.8245"/>
<polygon fill="#00ff00" stroke="#00ff00" points="94.5001,-71.8716 98,-81.8716 101.5001,-71.8716 94.5001,-71.8716"/>
</g>
<!-- n3 -->
<g id="node4" class="node">
<title>n3</title>
<path fill="#1b9e77" stroke="#000000" d="M398,-40C398,-40 226,-40 226,-40 220,-40 214,-34 214,-28 214,-28 214,-12 214,-12 214,-6 220,0 226,0 226,0 398,0 398,0 404,0 410,-6 410,-12 410,-12 410,-28 410,-28 410,-34 404,-40 398,-40"/>
<text text-anchor="start" x="273.3735" y="-26" font-family="arial" font-weight="bold" font-size="10.00" fill="#000000"> What about SII ?</text>
<text text-anchor="start" x="276.1525" y="-9" font-family="arial" font-size="10.00" fill="#000000">What about SII?</text>
</g>
<!-- n3&#45;&gt;n1 -->
<g id="edge2" class="edge">
<title>n3&#45;&gt;n1</title>
<path fill="none" stroke="#00ff00" d="M312,-40.3057C312,-47.8007 312,-56.6788 312,-65.7065"/>
<polygon fill="#00ff00" stroke="#00ff00" points="308.5001,-65.8971 312,-75.8971 315.5001,-65.8972 308.5001,-65.8971"/>
</g>
</g>
</svg>
