
<!-- Generated by graphviz version 2.40.1 (20161225.0304)
 -->
<!-- Title: Argument Map Pages: 1 -->
<svg width="720pt" height="74pt"
 viewBox="0.00 0.00 720.00 74.45" xmlns="http://www.w3.org/2000/svg" xmlns:xlink="http://www.w3.org/1999/xlink">
<g id="graph0" class="graph" transform="scale(.423 .423) rotate(0) translate(4 172)">
<title>Argument Map</title>
<!-- n0 -->
<g id="node1" class="node">
<title>n0</title>
<path fill="#ffffff" stroke="#1b9e77" stroke-width="2" d="M184,-156C184,-156 12,-156 12,-156 6,-156 0,-150 0,-144 0,-144 0,-120 0,-120 0,-114 6,-108 12,-108 12,-108 184,-108 184,-108 190,-108 196,-114 196,-120 196,-120 196,-144 196,-144 196,-150 190,-156 184,-156"/>
<text text-anchor="start" x="16.023" y="-142" font-family="arial" font-weight="bold" font-size="10.00" fill="#000000"> I get enough of it at work , thank you</text>
<text text-anchor="start" x="95.221" y="-132" font-family="arial" font-weight="bold" font-size="10.00" fill="#000000"> .</text>
<text text-anchor="start" x="17.4125" y="-117" font-family="arial" font-size="10.00" fill="#000000">I get enough of it at work, thank you.</text>
</g>
<!-- n1 -->
<g id="node2" class="node">
<title>n1</title>
<path fill="#ffffff" stroke="#1b9e77" stroke-width="2" d="M612,-164C612,-164 440,-164 440,-164 434,-164 428,-158 428,-152 428,-152 428,-112 428,-112 428,-106 434,-100 440,-100 440,-100 612,-100 612,-100 618,-100 624,-106 624,-112 624,-112 624,-152 624,-152 624,-158 618,-164 612,-164"/>
<text text-anchor="start" x="448.191" y="-150" font-family="arial" font-weight="bold" font-size="10.00" fill="#000000"> I get hassled enough at work , and</text>
<text text-anchor="start" x="448.191" y="-133" font-family="arial" font-size="10.00" fill="#000000">I get hassled enough at work, and I</text>
<text text-anchor="start" x="449.318" y="-121" font-family="arial" font-size="10.00" fill="#000000"> don&#39;t want to deal with it on my off</text>
<text text-anchor="start" x="512.662" y="-109" font-family="arial" font-size="10.00" fill="#000000"> days.</text>
</g>
<!-- n2 -->
<g id="node3" class="node">
<title>n2</title>
<path fill="#ffffff" stroke="#1b9e77" stroke-width="2" d="M1147,-158C1147,-158 975,-158 975,-158 969,-158 963,-152 963,-146 963,-146 963,-118 963,-118 963,-112 969,-106 975,-106 975,-106 1147,-106 1147,-106 1153,-106 1159,-112 1159,-118 1159,-118 1159,-146 1159,-146 1159,-152 1153,-158 1147,-158"/>
<text text-anchor="start" x="989.3195" y="-144" font-family="arial" font-weight="bold" font-size="10.00" fill="#000000"> I really love some of the women</text>
<text text-anchor="start" x="977.647" y="-127" font-family="arial" font-size="10.00" fill="#000000">And I really love some of the women I</text>
<text text-anchor="start" x="1037.39" y="-115" font-family="arial" font-size="10.00" fill="#000000"> work with.</text>
</g>
<!-- n3 -->
<g id="node4" class="node">
<title>n3</title>
<path fill="#ffffff" stroke="#1b9e77" stroke-width="2" d="M1468,-168C1468,-168 1296,-168 1296,-168 1290,-168 1284,-162 1284,-156 1284,-156 1284,-108 1284,-108 1284,-102 1290,-96 1296,-96 1296,-96 1468,-96 1468,-96 1474,-96 1480,-102 1480,-108 1480,-108 1480,-156 1480,-156 1480,-162 1474,-168 1468,-168"/>
<text text-anchor="start" x="1309.2095" y="-154" font-family="arial" font-weight="bold" font-size="10.00" fill="#000000"> friends moved to New York after</text>
<text text-anchor="start" x="1352.2665" y="-144" font-family="arial" font-weight="bold" font-size="10.00" fill="#000000"> college , and</text>
<text text-anchor="start" x="1293.931" y="-129" font-family="arial" font-size="10.00" fill="#000000">My two best friends moved to New York</text>
<text text-anchor="start" x="1308.6515" y="-117" font-family="arial" font-size="10.00" fill="#000000"> after college, and I haven&#39;t really</text>
<text text-anchor="start" x="1310.5885" y="-105" font-family="arial" font-size="10.00" fill="#000000"> connected with anyone at work.</text>
</g>
<!-- n4 -->
<g id="node5" class="node">
<title>n4</title>
<path fill="#ffffff" stroke="#1b9e77" stroke-width="2" d="M1682,-168C1682,-168 1510,-168 1510,-168 1504,-168 1498,-162 1498,-156 1498,-156 1498,-108 1498,-108 1498,-102 1504,-96 1510,-96 1510,-96 1682,-96 1682,-96 1688,-96 1694,-102 1694,-108 1694,-108 1694,-156 1694,-156 1694,-162 1688,-168 1682,-168"/>
<text text-anchor="start" x="1521.817" y="-154" font-family="arial" font-weight="bold" font-size="10.00" fill="#000000"> I actually did a little more speed ,</text>
<text text-anchor="start" x="1587.662" y="-144" font-family="arial" font-weight="bold" font-size="10.00" fill="#000000"> but</text>
<text text-anchor="start" x="1516.258" y="-129" font-family="arial" font-size="10.00" fill="#000000">I actually did a little more speed, but</text>
<text text-anchor="start" x="1514.8725" y="-117" font-family="arial" font-size="10.00" fill="#000000"> it was just this one day when I didn&#39;t</text>
<text text-anchor="start" x="1564.881" y="-105" font-family="arial" font-size="10.00" fill="#000000"> have to work.</text>
</g>
<!-- n5 -->
<g id="node6" class="node">
<title>n5</title>
<path fill="#1b9e77" stroke="#000000" d="M184,-60C184,-60 12,-60 12,-60 6,-60 0,-54 0,-48 0,-48 0,-12 0,-12 0,-6 6,0 12,0 12,0 184,0 184,0 190,0 196,-6 196,-12 196,-12 196,-48 196,-48 196,-54 190,-60 184,-60"/>
<text text-anchor="start" x="14.0875" y="-46" font-family="arial" font-weight="bold" font-size="10.00" fill="#000000"> you want to find a way to control your</text>
<text text-anchor="start" x="55.489" y="-36" font-family="arial" font-weight="bold" font-size="10.00" fill="#000000"> impulse to anger ?</text>
<text text-anchor="start" x="19.0865" y="-21" font-family="arial" font-size="10.00" fill="#000000">So you want to find a way to control</text>
<text text-anchor="start" x="45.7655" y="-9" font-family="arial" font-size="10.00" fill="#000000"> your impulse to anger?</text>
</g>
<!-- n5&#45;&gt;n0 -->
<g id="edge1" class="edge">
<title>n5&#45;&gt;n0</title>
<path fill="none" stroke="#00ff00" d="M98,-60.0517C98,-71.8689 98,-85.5022 98,-97.7022"/>
<polygon fill="#00ff00" stroke="#00ff00" points="94.5001,-97.9727 98,-107.9727 101.5001,-97.9727 94.5001,-97.9727"/>
</g>
<!-- n6 -->
<g id="node7" class="node">
<title>n6</title>
<path fill="#1b9e77" stroke="#000000" d="M398,-50C398,-50 226,-50 226,-50 220,-50 214,-44 214,-38 214,-38 214,-22 214,-22 214,-16 220,-10 226,-10 226,-10 398,-10 398,-10 404,-10 410,-16 410,-22 410,-22 410,-38 410,-38 410,-44 404,-50 398,-50"/>
<text text-anchor="start" x="283.1115" y="-36" font-family="arial" font-weight="bold" font-size="10.00" fill="#000000"> I &#39;m not sure</text>
<text text-anchor="start" x="246.1695" y="-19" font-family="arial" font-size="10.00" fill="#000000">I&#39;m not sure I&#39;m following you.</text>
</g>
<!-- n6&#45;&gt;n1 -->
<g id="edge2" class="edge">
<title>n6&#45;&gt;n1</title>
<path fill="none" stroke="#00ff00" d="M354.0242,-50.0302C381.1671,-62.9675 417.2878,-80.1839 449.4177,-95.4982"/>
<polygon fill="#00ff00" stroke="#00ff00" points="448.2705,-98.8285 458.8035,-99.9717 451.2823,-92.5096 448.2705,-98.8285"/>
</g>
<!-- n7 -->
<g id="node8" class="node">
<title>n7</title>
<path fill="#1b9e77" stroke="#000000" d="M612,-56C612,-56 440,-56 440,-56 434,-56 428,-50 428,-44 428,-44 428,-16 428,-16 428,-10 434,-4 440,-4 440,-4 612,-4 612,-4 618,-4 624,-10 624,-16 624,-16 624,-44 624,-44 624,-50 618,-56 612,-56"/>
<text text-anchor="start" x="516.832" y="-42" font-family="arial" font-weight="bold" font-size="10.00" fill="#000000"> Are</text>
<text text-anchor="start" x="447.3655" y="-25" font-family="arial" font-size="10.00" fill="#000000">Are you talking about your personal</text>
<text text-anchor="start" x="515.443" y="-13" font-family="arial" font-size="10.00" fill="#000000"> life?</text>
</g>
<!-- n7&#45;&gt;n1 -->
<g id="edge3" class="edge">
<title>n7&#45;&gt;n1</title>
<path fill="none" stroke="#00ff00" d="M526,-56.0028C526,-66.2157 526,-78.2055 526,-89.6046"/>
<polygon fill="#00ff00" stroke="#00ff00" points="522.5001,-89.8392 526,-99.8392 529.5001,-89.8393 522.5001,-89.8392"/>
</g>
<!-- n8 -->
<g id="node9" class="node">
<title>n8</title>
<path fill="#1b9e77" stroke="#000000" d="M826,-50C826,-50 654,-50 654,-50 648,-50 642,-44 642,-38 642,-38 642,-22 642,-22 642,-16 648,-10 654,-10 654,-10 826,-10 826,-10 832,-10 838,-16 838,-22 838,-22 838,-38 838,-38 838,-44 832,-50 826,-50"/>
<text text-anchor="start" x="715.265" y="-36" font-family="arial" font-weight="bold" font-size="10.00" fill="#000000"> you date ?</text>
<text text-anchor="start" x="652.4675" y="-19" font-family="arial" font-size="10.00" fill="#000000">Are you getting angry at men you date?</text>
</g>
<!-- n8&#45;&gt;n1 -->
<g id="edge4" class="edge">
<title>n8&#45;&gt;n1</title>
<path fill="none" stroke="#00ff00" d="M697.9758,-50.0302C670.8329,-62.9675 634.7122,-80.1839 602.5823,-95.4982"/>
<polygon fill="#00ff00" stroke="#00ff00" points="600.7177,-92.5096 593.1965,-99.9717 603.7295,-98.8285 600.7177,-92.5096"/>
</g>
<!-- n9 -->
<g id="node10" class="node">
<title>n9</title>
<path fill="#1b9e77" stroke="#000000" d="M1040,-60C1040,-60 868,-60 868,-60 862,-60 856,-54 856,-48 856,-48 856,-12 856,-12 856,-6 862,0 868,0 868,0 1040,0 1040,0 1046,0 1052,-6 1052,-12 1052,-12 1052,-48 1052,-48 1052,-54 1046,-60 1040,-60"/>
<text text-anchor="start" x="874.251" y="-46" font-family="arial" font-weight="bold" font-size="10.00" fill="#000000"> That does sound unusual for a strip</text>
<text text-anchor="start" x="940.663" y="-36" font-family="arial" font-weight="bold" font-size="10.00" fill="#000000"> club .</text>
<text text-anchor="start" x="875.6405" y="-21" font-family="arial" font-size="10.00" fill="#000000">That does sound unusual for a strip</text>
<text text-anchor="start" x="942.0525" y="-9" font-family="arial" font-size="10.00" fill="#000000"> club.</text>
</g>
<!-- n9&#45;&gt;n2 -->
<g id="edge5" class="edge">
<title>n9&#45;&gt;n2</title>
<path fill="none" stroke="#00ff00" d="M985.5248,-60.0517C998.3046,-72.2343 1013.1093,-86.3472 1026.2038,-98.8298"/>
<polygon fill="#00ff00" stroke="#00ff00" points="1024.0347,-101.5975 1033.6879,-105.9641 1028.8647,-96.5308 1024.0347,-101.5975"/>
</g>
<!-- n10 -->
<g id="node11" class="node">
<title>n10</title>
<path fill="#1b9e77" stroke="#000000" d="M1254,-56C1254,-56 1082,-56 1082,-56 1076,-56 1070,-50 1070,-44 1070,-44 1070,-16 1070,-16 1070,-10 1076,-4 1082,-4 1082,-4 1254,-4 1254,-4 1260,-4 1266,-10 1266,-16 1266,-16 1266,-44 1266,-44 1266,-50 1260,-56 1254,-56"/>
<text text-anchor="start" x="1107.987" y="-42" font-family="arial" font-weight="bold" font-size="10.00" fill="#000000"> I knew this establishment ,</text>
<text text-anchor="start" x="1096.315" y="-25" font-family="arial" font-size="10.00" fill="#000000">Do you believe that if I knew this</text>
<text text-anchor="start" x="1111.8775" y="-13" font-family="arial" font-size="10.00" fill="#000000"> establishment, it would...</text>
</g>
<!-- n10&#45;&gt;n2 -->
<g id="edge6" class="edge">
<title>n10&#45;&gt;n2</title>
<path fill="none" stroke="#ff0000" d="M1140.7225,-56.0028C1127.1192,-68.9705 1110.5109,-84.8027 1095.9813,-98.6533"/>
<polygon fill="#ff0000" stroke="#ff0000" points="1093.4229,-96.2567 1088.5997,-105.69 1098.2529,-101.3234 1093.4229,-96.2567"/>
</g>
<!-- n11 -->
<g id="node12" class="node">
<title>n11</title>
<path fill="#1b9e77" stroke="#000000" d="M1468,-50C1468,-50 1296,-50 1296,-50 1290,-50 1284,-44 1284,-38 1284,-38 1284,-22 1284,-22 1284,-16 1290,-10 1296,-10 1296,-10 1468,-10 1468,-10 1474,-10 1480,-16 1480,-22 1480,-22 1480,-38 1480,-38 1480,-44 1474,-50 1468,-50"/>
<text text-anchor="start" x="1363.663" y="-36" font-family="arial" font-weight="bold" font-size="10.00" fill="#000000"> Why do</text>
<text text-anchor="start" x="1326.1505" y="-19" font-family="arial" font-size="10.00" fill="#000000">Why do you think that is?</text>
</g>
<!-- n11&#45;&gt;n3 -->
<g id="edge7" class="edge">
<title>n11&#45;&gt;n3</title>
<path fill="none" stroke="#ff0000" d="M1382,-50.1519C1382,-60.3121 1382,-73.0888 1382,-85.5064"/>
<polygon fill="#ff0000" stroke="#ff0000" points="1378.5001,-85.7873 1382,-95.7873 1385.5001,-85.7874 1378.5001,-85.7873"/>
</g>
<!-- n12 -->
<g id="node13" class="node">
<title>n12</title>
<path fill="#1b9e77" stroke="#000000" d="M1682,-50C1682,-50 1510,-50 1510,-50 1504,-50 1498,-44 1498,-38 1498,-38 1498,-22 1498,-22 1498,-16 1504,-10 1510,-10 1510,-10 1682,-10 1682,-10 1688,-10 1694,-16 1694,-22 1694,-22 1694,-38 1694,-38 1694,-44 1688,-50 1682,-50"/>
<text text-anchor="start" x="1547.649" y="-36" font-family="arial" font-weight="bold" font-size="10.00" fill="#000000"> you do more speed ?</text>
<text text-anchor="start" x="1530.4225" y="-19" font-family="arial" font-size="10.00" fill="#000000">Lisa, did you do more speed?</text>
</g>
<!-- n12&#45;&gt;n4 -->
<g id="edge8" class="edge">
<title>n12&#45;&gt;n4</title>
<path fill="none" stroke="#ff0000" d="M1596,-50.1519C1596,-60.3121 1596,-73.0888 1596,-85.5064"/>
<polygon fill="#ff0000" stroke="#ff0000" points="1592.5001,-85.7873 1596,-95.7873 1599.5001,-85.7874 1592.5001,-85.7873"/>
</g>
</g>
</svg>
