
<!-- Generated by graphviz version 2.40.1 (20161225.0304)
 -->
<!-- Title: Argument Map Pages: 1 -->
<svg width="720pt" height="65pt"
 viewBox="0.00 0.00 720.00 64.84" xmlns="http://www.w3.org/2000/svg" xmlns:xlink="http://www.w3.org/1999/xlink">
<g id="graph0" class="graph" transform="scale(.3377 .3377) rotate(0) translate(4 188)">
<title>Argument Map</title>
<!-- n0 -->
<g id="node1" class="node">
<title>n0</title>
<path fill="#ffffff" stroke="#1b9e77" stroke-width="2" d="M184,-178C184,-178 12,-178 12,-178 6,-178 0,-172 0,-166 0,-166 0,-138 0,-138 0,-132 6,-126 12,-126 12,-126 184,-126 184,-126 190,-126 196,-132 196,-138 196,-138 196,-166 196,-166 196,-172 190,-178 184,-178"/>
<text text-anchor="start" x="19.096" y="-164" font-family="arial" font-weight="bold" font-size="10.00" fill="#000000"> she started doing dominatrix work .</text>
<text text-anchor="start" x="13.807" y="-147" font-family="arial" font-size="10.00" fill="#000000">And then she started doing dominatrix</text>
<text text-anchor="start" x="84.6675" y="-135" font-family="arial" font-size="10.00" fill="#000000"> work.</text>
</g>
<!-- n1 -->
<g id="node2" class="node">
<title>n1</title>
<path fill="#ffffff" stroke="#1b9e77" stroke-width="2" d="M398,-178C398,-178 226,-178 226,-178 220,-178 214,-172 214,-166 214,-166 214,-138 214,-138 214,-132 220,-126 226,-126 226,-126 398,-126 398,-126 404,-126 410,-132 410,-138 410,-138 410,-166 410,-166 410,-172 404,-178 398,-178"/>
<text text-anchor="start" x="247.817" y="-164" font-family="arial" font-weight="bold" font-size="10.00" fill="#000000"> someone called in sick , and</text>
<text text-anchor="start" x="226.4165" y="-147" font-family="arial" font-size="10.00" fill="#000000">And then someone called in sick, and I</text>
<text text-anchor="start" x="261.9855" y="-135" font-family="arial" font-size="10.00" fill="#000000"> worked a double shift.</text>
</g>
<!-- n2 -->
<g id="node3" class="node">
<title>n2</title>
<path fill="#ffffff" stroke="#1b9e77" stroke-width="2" d="M612,-172C612,-172 440,-172 440,-172 434,-172 428,-166 428,-160 428,-160 428,-144 428,-144 428,-138 434,-132 440,-132 440,-132 612,-132 612,-132 618,-132 624,-138 624,-144 624,-144 624,-160 624,-160 624,-166 618,-172 612,-172"/>
<text text-anchor="start" x="517.107" y="-158" font-family="arial" font-weight="bold" font-size="10.00" fill="#000000"> But</text>
<text text-anchor="start" x="460.154" y="-141" font-family="arial" font-size="10.00" fill="#000000">But it never really worked out.</text>
</g>
<!-- n3 -->
<g id="node4" class="node">
<title>n3</title>
<path fill="#ffffff" stroke="#1b9e77" stroke-width="2" d="M1042,-182C1042,-182 870,-182 870,-182 864,-182 858,-176 858,-170 858,-170 858,-134 858,-134 858,-128 864,-122 870,-122 870,-122 1042,-122 1042,-122 1048,-122 1054,-128 1054,-134 1054,-134 1054,-170 1054,-170 1054,-176 1048,-182 1042,-182"/>
<text text-anchor="start" x="871.257" y="-168" font-family="arial" font-weight="bold" font-size="10.00" fill="#000000"> I want to have more free days to work</text>
<text text-anchor="start" x="937.1045" y="-158" font-family="arial" font-weight="bold" font-size="10.00" fill="#000000"> on this .</text>
<text text-anchor="start" x="872.6465" y="-143" font-family="arial" font-size="10.00" fill="#000000">I want to have more free days to work</text>
<text text-anchor="start" x="938.494" y="-131" font-family="arial" font-size="10.00" fill="#000000"> on this.</text>
</g>
<!-- n4 -->
<g id="node5" class="node">
<title>n4</title>
<path fill="#ffffff" stroke="#1b9e77" stroke-width="2" d="M1794,-184C1794,-184 1616,-184 1616,-184 1610,-184 1604,-178 1604,-172 1604,-172 1604,-132 1604,-132 1604,-126 1610,-120 1616,-120 1616,-120 1794,-120 1794,-120 1800,-120 1806,-126 1806,-132 1806,-132 1806,-172 1806,-172 1806,-178 1800,-184 1794,-184"/>
<text text-anchor="start" x="1688.0485" y="-170" font-family="arial" font-weight="bold" font-size="10.00" fill="#000000"> People</text>
<text text-anchor="start" x="1613.869" y="-153" font-family="arial" font-size="10.00" fill="#000000">People who work there arrange their own</text>
<text text-anchor="start" x="1624.9745" y="-141" font-family="arial" font-size="10.00" fill="#000000"> schedules and can make time to do</text>
<text text-anchor="start" x="1656.0955" y="-129" font-family="arial" font-size="10.00" fill="#000000"> their videos and stuff.</text>
</g>
<!-- n5 -->
<g id="node6" class="node">
<title>n5</title>
<path fill="#1b9e77" stroke="#000000" d="M184,-62C184,-62 12,-62 12,-62 6,-62 0,-56 0,-50 0,-50 0,-34 0,-34 0,-28 6,-22 12,-22 12,-22 184,-22 184,-22 190,-22 196,-28 196,-34 196,-34 196,-50 196,-50 196,-56 190,-62 184,-62"/>
<text text-anchor="start" x="59.6595" y="-48" font-family="arial" font-weight="bold" font-size="10.00" fill="#000000"> Tell me about it .</text>
<text text-anchor="start" x="62.4385" y="-31" font-family="arial" font-size="10.00" fill="#000000">Tell me about it.</text>
</g>
<!-- n5&#45;&gt;n0 -->
<g id="edge1" class="edge">
<title>n5&#45;&gt;n0</title>
<path fill="none" stroke="#00ff00" d="M98,-62.1757C98,-77.1079 98,-97.8577 98,-115.6526"/>
<polygon fill="#00ff00" stroke="#00ff00" points="94.5001,-115.7221 98,-125.7222 101.5001,-115.7222 94.5001,-115.7221"/>
</g>
<!-- n6 -->
<g id="node7" class="node">
<title>n6</title>
<path fill="#1b9e77" stroke="#000000" d="M398,-62C398,-62 226,-62 226,-62 220,-62 214,-56 214,-50 214,-50 214,-34 214,-34 214,-28 220,-22 226,-22 226,-22 398,-22 398,-22 404,-22 410,-28 410,-34 410,-34 410,-50 410,-50 410,-56 404,-62 398,-62"/>
<text text-anchor="start" x="304.2215" y="-48" font-family="arial" font-weight="bold" font-size="10.00" fill="#000000"> Do</text>
<text text-anchor="start" x="229.7595" y="-31" font-family="arial" font-size="10.00" fill="#000000">Do you want to work so many hours?</text>
</g>
<!-- n6&#45;&gt;n1 -->
<g id="edge2" class="edge">
<title>n6&#45;&gt;n1</title>
<path fill="none" stroke="#00ff00" d="M312,-62.1757C312,-77.1079 312,-97.8577 312,-115.6526"/>
<polygon fill="#00ff00" stroke="#00ff00" points="308.5001,-115.7221 312,-125.7222 315.5001,-115.7222 308.5001,-115.7221"/>
</g>
<!-- n7 -->
<g id="node8" class="node">
<title>n7</title>
<path fill="#1b9e77" stroke="#000000" d="M612,-62C612,-62 440,-62 440,-62 434,-62 428,-56 428,-50 428,-50 428,-34 428,-34 428,-28 434,-22 440,-22 440,-22 612,-22 612,-22 618,-22 624,-28 624,-34 624,-34 624,-50 624,-50 624,-56 618,-62 612,-62"/>
<text text-anchor="start" x="481.8205" y="-48" font-family="arial" font-weight="bold" font-size="10.00" fill="#000000"> Tell me about that .</text>
<text text-anchor="start" x="484.5995" y="-31" font-family="arial" font-size="10.00" fill="#000000">Tell me about that.</text>
</g>
<!-- n7&#45;&gt;n2 -->
<g id="edge3" class="edge">
<title>n7&#45;&gt;n2</title>
<path fill="none" stroke="#00ff00" d="M526,-62.1757C526,-78.8445 526,-102.763 526,-121.7277"/>
<polygon fill="#00ff00" stroke="#00ff00" points="522.5001,-121.9522 526,-131.9522 529.5001,-121.9522 522.5001,-121.9522"/>
</g>
<!-- n8 -->
<g id="node9" class="node">
<title>n8</title>
<path fill="#1b9e77" stroke="#000000" d="M828,-68C828,-68 654,-68 654,-68 648,-68 642,-62 642,-56 642,-56 642,-28 642,-28 642,-22 648,-16 654,-16 654,-16 828,-16 828,-16 834,-16 840,-22 840,-28 840,-28 840,-56 840,-56 840,-62 834,-68 828,-68"/>
<text text-anchor="start" x="684.8715" y="-54" font-family="arial" font-weight="bold" font-size="10.00" fill="#000000"> that peaks your interest .</text>
<text text-anchor="start" x="651.8015" y="-37" font-family="arial" font-size="10.00" fill="#000000">It sounds like you have found something</text>
<text text-anchor="start" x="686.261" y="-25" font-family="arial" font-size="10.00" fill="#000000"> that peaks your interest.</text>
</g>
<!-- n8&#45;&gt;n3 -->
<g id="edge4" class="edge">
<title>n8&#45;&gt;n3</title>
<path fill="none" stroke="#ff0000" d="M791.952,-68.0685C820.6591,-82.7558 856.8873,-101.2912 887.9921,-117.2053"/>
<polygon fill="#ff0000" stroke="#ff0000" points="886.5448,-120.3962 897.0415,-121.8352 889.7332,-114.1645 886.5448,-120.3962"/>
</g>
<!-- n9 -->
<g id="node10" class="node">
<title>n9</title>
<path fill="#1b9e77" stroke="#000000" d="M1042,-74C1042,-74 870,-74 870,-74 864,-74 858,-68 858,-62 858,-62 858,-22 858,-22 858,-16 864,-10 870,-10 870,-10 1042,-10 1042,-10 1048,-10 1054,-16 1054,-22 1054,-22 1054,-62 1054,-62 1054,-68 1048,-74 1042,-74"/>
<text text-anchor="start" x="896.812" y="-60" font-family="arial" font-weight="bold" font-size="10.00" fill="#000000"> We have to stop now , but</text>
<text text-anchor="start" x="886.54" y="-43" font-family="arial" font-size="10.00" fill="#000000">We have to stop now, but I&#39;ll be</text>
<text text-anchor="start" x="869.5875" y="-31" font-family="arial" font-size="10.00" fill="#000000"> interested to hear how things progress</text>
<text text-anchor="start" x="915.9885" y="-19" font-family="arial" font-size="10.00" fill="#000000"> at this new place.</text>
</g>
<!-- n9&#45;&gt;n3 -->
<g id="edge5" class="edge">
<title>n9&#45;&gt;n3</title>
<path fill="none" stroke="#00ff00" d="M956,-74.1123C956,-85.9033 956,-99.4025 956,-111.8141"/>
<polygon fill="#00ff00" stroke="#00ff00" points="952.5001,-111.9227 956,-121.9227 959.5001,-111.9227 952.5001,-111.9227"/>
</g>
<!-- n10 -->
<g id="node11" class="node">
<title>n10</title>
<path fill="#1b9e77" stroke="#000000" d="M1256,-68C1256,-68 1084,-68 1084,-68 1078,-68 1072,-62 1072,-56 1072,-56 1072,-28 1072,-28 1072,-22 1078,-16 1084,-16 1084,-16 1256,-16 1256,-16 1262,-16 1268,-22 1268,-28 1268,-28 1268,-56 1268,-56 1268,-62 1262,-68 1256,-68"/>
<text text-anchor="start" x="1156.3825" y="-54" font-family="arial" font-weight="bold" font-size="10.00" fill="#000000"> you ?</text>
<text text-anchor="start" x="1083.5885" y="-37" font-family="arial" font-size="10.00" fill="#000000">You won&#39;t be quitting SII anytime soon,</text>
<text text-anchor="start" x="1149.4445" y="-25" font-family="arial" font-size="10.00" fill="#000000"> will you?</text>
</g>
<!-- n10&#45;&gt;n3 -->
<g id="edge6" class="edge">
<title>n10&#45;&gt;n3</title>
<path fill="none" stroke="#00ff00" d="M1119.285,-68.0685C1090.7114,-82.7558 1054.6517,-101.2912 1023.6915,-117.2053"/>
<polygon fill="#00ff00" stroke="#00ff00" points="1021.978,-114.1507 1014.6843,-121.8352 1025.1782,-120.3764 1021.978,-114.1507"/>
</g>
<!-- n11 -->
<g id="node12" class="node">
<title>n11</title>
<path fill="#1b9e77" stroke="#000000" d="M1470,-62C1470,-62 1298,-62 1298,-62 1292,-62 1286,-56 1286,-50 1286,-50 1286,-34 1286,-34 1286,-28 1292,-22 1298,-22 1298,-22 1470,-22 1470,-22 1476,-22 1482,-28 1482,-34 1482,-34 1482,-50 1482,-50 1482,-56 1476,-62 1470,-62"/>
<text text-anchor="start" x="1368.9935" y="-48" font-family="arial" font-weight="bold" font-size="10.00" fill="#000000"> I see .</text>
<text text-anchor="start" x="1371.7725" y="-31" font-family="arial" font-size="10.00" fill="#000000">I see.</text>
</g>
<!-- n11&#45;&gt;n4 -->
<g id="edge7" class="edge">
<title>n11&#45;&gt;n4</title>
<path fill="none" stroke="#00ff00" d="M1433.0171,-62.0293C1451.1371,-69.2244 1471.9098,-77.2287 1491,-84 1524.2725,-95.8017 1560.7846,-107.7633 1594.0806,-118.2946"/>
<polygon fill="#00ff00" stroke="#00ff00" points="1593.2509,-121.7028 1603.8406,-121.37 1595.3548,-115.0264 1593.2509,-121.7028"/>
</g>
<!-- n12 -->
<g id="node13" class="node">
<title>n12</title>
<path fill="#1b9e77" stroke="#000000" d="M1684,-68C1684,-68 1512,-68 1512,-68 1506,-68 1500,-62 1500,-56 1500,-56 1500,-28 1500,-28 1500,-22 1506,-16 1512,-16 1512,-16 1684,-16 1684,-16 1690,-16 1696,-22 1696,-28 1696,-28 1696,-56 1696,-56 1696,-62 1690,-68 1684,-68"/>
<text text-anchor="start" x="1584.663" y="-54" font-family="arial" font-weight="bold" font-size="10.00" fill="#000000"> Lisa ,</text>
<text text-anchor="start" x="1520.1915" y="-37" font-family="arial" font-size="10.00" fill="#000000">Lisa, we got a good start today, but</text>
<text text-anchor="start" x="1565.2175" y="-25" font-family="arial" font-size="10.00" fill="#000000"> our time is up.</text>
</g>
<!-- n12&#45;&gt;n4 -->
<g id="edge8" class="edge">
<title>n12&#45;&gt;n4</title>
<path fill="none" stroke="#00ff00" d="M1623.3575,-68.0685C1636.1983,-81.2693 1652.0628,-97.5786 1666.382,-112.2993"/>
<polygon fill="#00ff00" stroke="#00ff00" points="1664.2235,-115.0999 1673.705,-119.8276 1669.2412,-110.219 1664.2235,-115.0999"/>
</g>
<!-- n13 -->
<g id="node14" class="node">
<title>n13</title>
<path fill="#1b9e77" stroke="#000000" d="M1898,-62C1898,-62 1726,-62 1726,-62 1720,-62 1714,-56 1714,-50 1714,-50 1714,-34 1714,-34 1714,-28 1720,-22 1726,-22 1726,-22 1898,-22 1898,-22 1904,-22 1910,-28 1910,-34 1910,-34 1910,-50 1910,-50 1910,-56 1904,-62 1898,-62"/>
<text text-anchor="start" x="1758.655" y="-48" font-family="arial" font-weight="bold" font-size="10.00" fill="#000000"> Try out my suggestion .</text>
<text text-anchor="start" x="1761.434" y="-31" font-family="arial" font-size="10.00" fill="#000000">Try out my suggestion.</text>
</g>
<!-- n13&#45;&gt;n4 -->
<g id="edge9" class="edge">
<title>n13&#45;&gt;n4</title>
<path fill="none" stroke="#ff0000" d="M1792.3746,-62.1757C1778.649,-76.2861 1759.8702,-95.5913 1743.2388,-112.6891"/>
<polygon fill="#ff0000" stroke="#ff0000" points="1740.7273,-110.2514 1736.2635,-119.86 1745.745,-115.1323 1740.7273,-110.2514"/>
</g>
<!-- n14 -->
<g id="node15" class="node">
<title>n14</title>
<path fill="#1b9e77" stroke="#000000" d="M2112,-84C2112,-84 1940,-84 1940,-84 1934,-84 1928,-78 1928,-72 1928,-72 1928,-12 1928,-12 1928,-6 1934,0 1940,0 1940,0 2112,0 2112,0 2118,0 2124,-6 2124,-12 2124,-12 2124,-72 2124,-72 2124,-78 2118,-84 2112,-84"/>
<text text-anchor="start" x="1942.0775" y="-70" font-family="arial" font-weight="bold" font-size="10.00" fill="#000000"> outburst coming up , count to ten and</text>
<text text-anchor="start" x="2012.663" y="-60" font-family="arial" font-weight="bold" font-size="10.00" fill="#000000"> see if</text>
<text text-anchor="start" x="1955.979" y="-45" font-family="arial" font-size="10.00" fill="#000000">The next time you feel an angry</text>
<text text-anchor="start" x="1943.467" y="-33" font-family="arial" font-size="10.00" fill="#000000"> outburst coming up, count to ten and</text>
<text text-anchor="start" x="1947.0905" y="-21" font-family="arial" font-size="10.00" fill="#000000"> see if you can control your outward</text>
<text text-anchor="start" x="1979.5985" y="-9" font-family="arial" font-size="10.00" fill="#000000"> expressions of rage.</text>
</g>
<!-- n14&#45;&gt;n4 -->
<g id="edge10" class="edge">
<title>n14&#45;&gt;n4</title>
<path fill="none" stroke="#ff0000" d="M1927.848,-80.8189C1924.8698,-81.9032 1921.9153,-82.966 1919,-84 1885.7275,-95.8017 1849.2154,-107.7633 1815.9194,-118.2946"/>
<polygon fill="#ff0000" stroke="#ff0000" points="1814.6452,-115.0264 1806.1594,-121.37 1816.7491,-121.7028 1814.6452,-115.0264"/>
</g>
</g>
</svg>
